<?xml version="1.0" encoding="utf-8"?>
<!-- Generator: Adobe Illustrator 18.1.1, SVG Export Plug-In . SVG Version: 6.00 Build 0)  -->
<svg version="1.1" id="Layer_1" xmlns="http://www.w3.org/2000/svg" xmlns:xlink="http://www.w3.org/1999/xlink" x="0px" y="0px"
	 viewBox="0 96 612 500" enable-background="new 0 96 612 500" xml:space="preserve">
<g>
	<g>
		<path d="M310,206.2L102.4,377.3c0,0.2,0,0.6-0.2,1.1c-0.1,0.5-0.2,0.8-0.2,1.1v173.3c0,6.3,2.3,11.7,6.9,16.2
			c4.6,4.6,10,6.9,16.2,6.9h138.6V437.2h92.4v138.6h138.6c6.3,0,11.7-2.3,16.2-6.9c4.6-4.6,6.9-10,6.9-16.3V379.5
			c0-1-0.1-1.7-0.4-2.2L310,206.2z M310,206.2"/>
		<path d="M597,338.3l-79.1-65.7V125.3c0-3.4-1.1-6.1-3.2-8.3c-2.2-2.2-4.9-3.2-8.3-3.2h-69.3c-3.4,0-6.1,1.1-8.3,3.2
			c-2.2,2.2-3.2,4.9-3.2,8.3v70.4l-88.1-73.6c-7.7-6.3-16.9-9.4-27.4-9.4c-10.6,0-19.7,3.1-27.4,9.4L23,338.3
			c-2.4,1.9-3.7,4.5-4,7.7c-0.2,3.2,0.6,6.1,2.5,8.5l22.4,26.7c1.9,2.2,4.5,3.5,7.6,4c2.9,0.2,5.8-0.6,8.7-2.5L310,174.4
			l249.8,208.3c1.9,1.7,4.5,2.5,7.6,2.5h1.1c3.1-0.5,5.6-1.8,7.6-4l22.4-26.7c1.9-2.4,2.8-5.2,2.5-8.5
			C600.7,342.8,599.4,340.2,597,338.3L597,338.3z M597,338.3"/>
	</g>
</g>
</svg>
