<?xml version="1.0" encoding="utf-8"?>
<!-- Generator: Adobe Illustrator 18.1.1, SVG Export Plug-In . SVG Version: 6.00 Build 0)  -->
<svg version="1.1" id="Layer_1" xmlns="http://www.w3.org/2000/svg" xmlns:xlink="http://www.w3.org/1999/xlink" x="0px" y="0px"
	 viewBox="0 96 612 500" enable-background="new 0 96 612 500" xml:space="preserve">
<g>
	<path d="M428.8,211.6l0.5,3.6l-5.4,1.1l-0.7,7.6h6.5l8.6-0.8l4.4-5.3L438,216l-2.6-3l-3.9-6.3l-1.9-8.9l-7.3,1.5l-2,3.2v3.5
		l3.5,2.4L428.8,211.6z M428.8,211.6"/>
	<path d="M422.6,214.5l0.4-4.8l-4.3-1.9l-6,1.4l-4.4,7.1v4.6h5.2L422.6,214.5z M422.6,214.5"/>
	<path d="M299.6,234.9l-1.3,3.4h-6.4v3.3h1.5c0,0,0.1,0.7,0.2,1.6l3.9-0.3l2.4-1.5l0.6-3.1l3.2-0.2l1.2-2.6l-2.9-0.6L299.6,234.9z
		 M299.6,234.9"/>
	<g>
		<path d="M283.2,240.8l-0.2,3.3l4.6-0.4l0.5-3.3l-2.8-2.2L283.2,240.8z M283.2,240.8"/>
		<path d="M560.2,343.5c-0.1-7.1-0.4-14.2-1.1-21.1c-2.2-23.1-7.7-45.2-16-66c-0.6-1.5-1.2-3.1-1.9-4.6c-11-26-26.5-49.7-45.4-70.2
			c-1.2-1.3-2.5-2.6-3.7-3.9c-3.6-3.7-7.2-7.3-11.1-10.8c-43-39.2-100.3-63.1-162.9-63.1c-63.2,0-120.8,24.4-164,64.2
			c-10.1,9.3-19.3,19.4-27.7,30.2c-31.7,41-50.5,92.2-50.5,147.8c0,133.6,108.7,242.2,242.2,242.2c94,0,175.5-53.8,215.7-132.2
			c8.6-16.7,15.3-34.6,19.7-53.3c1.2-4.8,2.1-9.5,3-14.4c2.4-13.7,3.7-27.9,3.7-42.3C560.2,345.2,560.2,344.3,560.2,343.5
			L560.2,343.5z M514.6,246.7l1.4-1.6c1.8,3.6,3.5,7.2,5.2,10.9l-2.3,0l-4.3,0.6V246.7z M479.6,204.5l0-10.8c3.8,4,7.5,8.2,11,12.5
			l-4.4,6.5l-15.2-0.1l-1-3.2L479.6,204.5z M187.5,177.6v-0.4h4.9l0.4-1.7h8v3.4l-2.3,3h-10.9V177.6z M195.2,188.4
			c0,0,4.8-0.8,5.3-0.8c0.4,0,0,4.9,0,4.9l-10.9,0.7l-2.1-2.5L195.2,188.4z M530,284.5h-17.7l-10.8-8l-11.4,1.1v7h-3.6l-3.9-2.8
			l-19.7-5V264l-25,2l-7.7,4.2h-9.9l-4.9-0.5l-12,6.7v12.5L379,306.6l2,7.6h5l-1.3,7.2l-3.5,1.3l-0.2,18.8l21.2,24.2h9.3l0.5-1.5
			h16.6l4.8-4.4h9.4l5.2,5.2l14.1,1.5l-1.9,18.6l15.6,27.5l-8.2,15.7l0.5,7.4l6.5,6.4v17.8l8.5,11.4v14.8h7.3
			c-40.8,50.1-102.9,82.2-172.4,82.2c-122.6,0-222.2-99.7-222.2-222.3c0-30.8,6.3-60.3,17.7-87v-7l8-9.6c2.8-5.2,5.7-10.3,8.9-15.3
			l0.4,4l-9.2,11.2c-2.9,5.4-5.5,10.9-7.9,16.6v12.6l9.2,4.4v17.6l8.9,15.1l7.2,1.1l0.9-5.2l-8.5-13.1l-1.7-12.7h5l2.1,13.1
			l12.3,17.9l-3.2,5.8l7.8,12l19.4,4.8v-3.1l7.7,1.1l-0.7,5.5l6.1,1.1l9.4,2.6l13.3,15.2l17,1.3l1.7,13.9l-11.6,8.1l-0.5,12.4
			l-1.7,7.6l16.8,21.1l1.3,7.2c0,0,6.1,1.6,6.8,1.6c0.7,0,13.7,9.8,13.7,9.8v38.1l4.6,1.3l-3.2,17.6l7.8,10.4l-1.4,17.4l10.2,18.1
			l13.2,11.5l13.2,0.2l1.3-4.2l-9.7-8.2l0.5-4l1.7-5l0.3-5.1l-6.6-0.2l-3.3-4.1l5.4-5.3l0.7-3.9l-6.1-1.7l0.3-3.7l8.7-1.3l13.2-6.3
			l4.4-8.1l13.9-17.8l-3.2-13.9l4.2-7.4l12.8,0.4l8.6-6.8l2.8-26.8l9.5-12.1l1.7-7.7l-8.7-2.8l-5.7-9.4l-19.6-0.2l-15.5-5.9
			l-0.7-11.1l-5.2-9l-14-0.2l-8.1-12.8l-7.2-3.5l-0.4,3.9l-13.1,0.8l-4.8-6.7l-13.7-2.8l-11.3,13l-17.7-3l-1.3-20l-12.9-2.2l5.2-9.8
			l-1.5-5.6l-17,11.4l-10.7-1.3l-3.8-8.4l2.3-8.6l5.9-10.9l13.6-6.9h26.2l-0.1,8l9.4,4.4l-0.7-13.7l6.8-6.9l13.7-9l1-6.3l13.7-14.2
			l14.5-8l-1.3-1.1l9.8-9.2l3.6,0.9l1.7,2.1l3.7-4.1l0.9-0.4l-4.1-0.6l-4.2-1.4v-4l2.2-1.8h4.8l2.2,1l1.9,3.9l2.3-0.4v-0.3l0.7,0.2
			l6.8-1l1-3.4l3.9,1v3.6l-3.6,2.5l0.5,3.9l12.3,3.8l0,0.1l2.8-0.2l0.2-5.4l-9.8-4.4l-0.5-2.6l8.1-2.8l0.3-7.8l-8.5-5.2l-0.5-13.1
			l-11.6,5.7h-4.2l1.1-10l-15.8-3.7l-6.6,5v15.1l-11.8,3.7l-4.7,9.9l-5.2,0.8v-12.6l-11-1.6l-5.5-3.6l-2.2-8.2l19.8-11.6l9.7-3
			l1,6.5l5.4-0.2l0.4-3.3l5.7-0.8l0.1-1.2l-2.4-1l-0.5-3.4l7-0.6l4.2-4.4l0.2-0.3h0l1.3-1.3l14.6-1.8l6.5,5.5l-16.9,9l21.5,5.1
			l2.8-7.2h9.4l3.3-6.3l-6.7-1.7v-7.9l-20.9-9.2l-14.4,1.6l-8.1,4.3l0.5,10.3l-8.5-1.3l-1.3-5.7l8.2-7.4l-14.8-0.7l-4.2,1.3l-1.9,5
			l5.5,0.9l-1.1,5.5l-9.4,0.6l-1.5,3.6l-13.7,0.4c0,0-0.3-7.7-0.9-7.7c-0.5,0,10.7-0.2,10.7-0.2l8.2-8l-4.5-2.2l-5.9,5.7L235,162
			l-5.9-8.1h-12.6l-13.1,9.8h12l1.1,3.5l-3.1,2.9l13.3,0.4l2,4.8l-15-0.6l-0.7-3.7l-9.4-2.1l-5-2.8l-11.2,0.1
			c36.7-26.7,81.8-42.5,130.6-42.5c56.2,0,107.6,21,146.8,55.5l-2.6,4.7l-10.3,4l-4.3,4.7l1,5.5l5.3,0.7l3.2,8l9.1-3.7l1.5,10.7H465
			l-7.5-1.1l-8.3,1.4l-8,11.4l-11.5,1.8l-1.7,9.8l4.9,1.2l-1.4,6.3l-11.4-2.3l-10.5,2.3l-2.2,5.8l1.8,12.3l6.1,2.9l10.3,0l7-0.6
			l2.1-5.6l10.9-14.1l7.1,1.5l7-6.4l1.3,5l17.4,11.7l-2.1,2.8l-7.8-0.4l3,4.2l4.8,1.1l5.6-2.3l-0.1-6.8l2.5-1.3l-2-2.1l-11.6-6.4
			l-3.1-8.6h9.6l3.1,3.1l8.3,7.1l0.3,8.6l8.6,9.1l3.2-12.5l5.9-3.3l1.1,10.3l5.8,6.4l11.6-0.2c2.2,5.7,4.2,11.6,6,17.6L530,284.5z
			 M208,213.8l5.8-2.8l5.3,1.3l-1.8,7l-5.7,1.8L208,213.8z M238.9,230.5v4.6h-13.3l-5-1.4l1.3-3.2l6.4-2.6h8.7v2.6H238.9z
			 M244.9,236.9v4.4l-3.3,2.1l-4.2,0.8v-7.3H244.9z M241.2,235v-5.3l4.6,4.1L241.2,235z M243.3,245.7v4.3l-3.2,3.2H233l1.1-4.8
			l3.3-0.3l0.7-1.7L243.3,245.7z M225.7,236.9h7.3l-9.4,13.2l-3.9-2.1l0.8-5.5L225.7,236.9z M255.7,244.2v4.3h-7l-1.9-2.8v-4h0.6
			L255.7,244.2z M249.2,238.3l2-2.1l3.4,2.1l-2.7,2.2L249.2,238.3z M533.6,295.7l0.7-0.8c0.3,1.2,0.6,2.5,0.9,3.8L533.6,295.7z
			 M533.6,295.7"/>
	</g>
	<path d="M113.5,252.1v7c2.4-5.7,5.1-11.2,8-16.6L113.5,252.1z M113.5,252.1"/>
</g>
</svg>
