<?xml version="1.0" encoding="utf-8"?>
<!-- Generator: Adobe Illustrator 18.1.1, SVG Export Plug-In . SVG Version: 6.00 Build 0)  -->
<svg version="1.1" id="Layer_1" xmlns="http://www.w3.org/2000/svg" xmlns:xlink="http://www.w3.org/1999/xlink" x="0px" y="0px"
	 viewBox="0 0 69.7 62.8" enable-background="new 0 0 69.7 62.8" xml:space="preserve">
<g>
	<path fill="#F7941D" d="M48.4,19.6c-1.5-0.6-2-1-2-1.7c0-0.5,0.4-1.2,1.6-1.2c1,0,1.8,0.4,1.8,0.4c0.1,0,0.2,0.1,0.3,0.1
		c0.2,0,0.4-0.1,0.5-0.3l0.3-0.7c0.1-0.3-0.1-0.5-0.2-0.6c-0.6-0.3-1.9-0.5-1.9-0.5c0,0-0.1,0-0.1-0.1l0-1c0-0.3-0.3-0.6-0.6-0.6
		h-0.5c-0.3,0-0.6,0.3-0.6,0.6l0,1.1c0,0.1-0.1,0.1-0.1,0.1c-1.5,0.4-2.5,1.5-2.5,2.9c0,1.8,1.5,2.6,3.1,3.2c1.3,0.5,1.8,1,1.8,1.7
		c0,0.8-0.7,1.4-1.8,1.4c-0.9,0-2.1-0.6-2.1-0.6c-0.1,0-0.2-0.1-0.2-0.1c-0.2,0-0.4,0.1-0.5,0.4l-0.3,0.7c-0.1,0.3,0.1,0.5,0.2,0.6
		c0.7,0.4,2.2,0.6,2.3,0.6c0,0,0.1,0,0.1,0.1v1.1c0,0.3,0.3,0.6,0.6,0.6H48c0.3,0,0.6-0.3,0.6-0.6v-1.1c0-0.1,0.1-0.1,0.1-0.1
		c1.6-0.4,2.7-1.6,2.7-3.1C51.3,21.4,50.4,20.4,48.4,19.6L48.4,19.6z M48.4,19.6"/>
	<g>
		<path fill="#F7941D" d="M47.8,7c-7.5,0-13.6,6.1-13.6,13.6c0,7.5,6.1,13.6,13.6,13.6c7.5,0,13.6-6.1,13.6-13.6
			C61.4,13.1,55.3,7,47.8,7L47.8,7z M47.8,31.1c-5.8,0-10.5-4.7-10.5-10.5c0-5.8,4.7-10.5,10.5-10.5c5.8,0,10.5,4.7,10.5,10.5
			C58.2,26.4,53.6,31.1,47.8,31.1L47.8,31.1z M47.8,31.1"/>
		<path fill="#F7941D" d="M58.6,40.8c-2.9,1.6-6.9,3.1-10.9,3.7c-3.5,0.6-10.2-0.8-10.2-2.4c0-0.6,5.8,1.5,9.4,0.5
			c2.7-0.7,2.3-3.3,0.8-3.6c-1.5-0.3-10-3.5-13.7-3.6c-1.7-0.1-6,0.6-8,0.9c-0.7,0.1-1.1,0.1-1.2,0.8c-0.2,3.1-0.6,9.6-0.8,12.9
			c0,0.1,0.1,1,0.9,0.4c0.9-0.7,2.1-1.5,3.2-1.3c1.8,0.4,16.9,3.2,19,2.7c3-0.7,11.5-5.7,13.1-7.3C62.7,42.2,60.7,39.7,58.6,40.8
			L58.6,40.8z M58.6,40.8"/>
		<path fill="#F7941D" d="M20.7,36.4L12.7,36c-0.6,0-1.2,0.4-1.4,1L9.9,50.1c-0.2,0.6,0.2,1.1,0.8,1.1l8.8,0c0.6,0,1.2-0.5,1.2-1.1
			l1-12.6C21.8,36.9,21.3,36.4,20.7,36.4L20.7,36.4z M16,49.5c-1.2,0-2.2-1-2.2-2.2c0-1.2,1-2.2,2.2-2.2c1.2,0,2.2,1,2.2,2.2
			C18.2,48.5,17.2,49.5,16,49.5L16,49.5z M16,49.5"/>
	</g>
</g>
</svg>
