<?xml version="1.0" encoding="utf-8"?>
<!-- Generator: Adobe Illustrator 18.1.1, SVG Export Plug-In . SVG Version: 6.00 Build 0)  -->
<svg version="1.1" id="Layer_1" xmlns="http://www.w3.org/2000/svg" xmlns:xlink="http://www.w3.org/1999/xlink" x="0px" y="0px"
	 viewBox="0 0 69.7 62.8" enable-background="new 0 0 69.7 62.8" xml:space="preserve">
<g>
	<g>
		<path fill="#F7941D" d="M28.4,32.8c0.4,0,0.7-0.1,1-0.4c0.3-0.3,0.4-0.6,0.4-1c0-0.4-0.1-0.7-0.4-1c-0.3-0.3-0.6-0.4-1-0.4
			c-0.4,0-0.7,0.1-1,0.4c-0.3,0.3-0.4,0.6-0.4,1c0,0.4,0.1,0.7,0.4,1C27.7,32.6,28.1,32.8,28.4,32.8L28.4,32.8z M28.4,32.8"/>
		<path fill="#F7941D" d="M34.8,29.6c0.4,0,0.7-0.1,1-0.4c0.3-0.3,0.4-0.6,0.4-1c0-0.4-0.1-0.7-0.4-1c-0.3-0.3-0.6-0.4-1-0.4
			c-0.4,0-0.7,0.1-1,0.4c-0.3,0.3-0.4,0.6-0.4,1s0.1,0.7,0.4,1C34.1,29.4,34.5,29.6,34.8,29.6L34.8,29.6z M34.8,29.6"/>
		<path fill="#F7941D" d="M30.7,43.3c-0.3,0.3-0.4,0.6-0.4,1s0.1,0.7,0.4,1c0.3,0.3,0.6,0.4,1,0.4c0.4,0,0.7-0.1,1-0.4
			c0.3-0.3,0.4-0.6,0.4-1s-0.1-0.7-0.4-1c-0.3-0.3-0.6-0.4-1-0.4C31.3,42.9,30.9,43,30.7,43.3L30.7,43.3z M30.7,43.3"/>
		<path fill="#F7941D" d="M40.3,43.3c-0.3,0.3-0.4,0.6-0.4,1s0.1,0.7,0.4,1c0.3,0.3,0.6,0.4,1,0.4s0.7-0.1,1-0.4
			c0.3-0.3,0.4-0.6,0.4-1s-0.1-0.7-0.4-1c-0.3-0.3-0.6-0.4-1-0.4S40.6,43,40.3,43.3L40.3,43.3z M40.3,43.3"/>
		<path fill="#F7941D" d="M63.7,42.3h-9.6c-0.4,0-0.8,0.1-1.2,0.4c-0.1,0.1-8.1,6-18.1,6c-9.9,0-18-6-18.1-6
			c-0.3-0.3-0.7-0.4-1.2-0.4H6c-1.1,0-1.9,0.9-1.9,1.9c0,1.1,0.9,1.9,1.9,1.9h9c2.1,1.5,10.1,6.4,19.9,6.4c9.8,0,17.8-5,19.9-6.4h9
			c1.1,0,1.9-0.9,1.9-1.9C65.7,43.2,64.8,42.3,63.7,42.3L63.7,42.3z M63.7,42.3"/>
		<path fill="#F7941D" d="M15.6,51.9h-3.2c-1.1,0-1.9,0.9-1.9,1.9c0,1.1,0.9,1.9,1.9,1.9h3.2c1.1,0,1.9-0.9,1.9-1.9
			C17.5,52.8,16.7,51.9,15.6,51.9L15.6,51.9z M15.6,51.9"/>
		<path fill="#F7941D" d="M57.3,51.9h-3.2c-1.1,0-1.9,0.9-1.9,1.9c0,1.1,0.9,1.9,1.9,1.9h3.2c1.1,0,1.9-0.9,1.9-1.9
			C59.3,52.8,58.4,51.9,57.3,51.9L57.3,51.9z M57.3,51.9"/>
		<path fill="#F7941D" d="M44.5,55.2h-3.2c-1.1,0-1.9,0.9-1.9,1.9c0,1.1,0.9,1.9,1.9,1.9h3.2c1.1,0,1.9-0.9,1.9-1.9
			C46.4,56,45.5,55.2,44.5,55.2L44.5,55.2z M44.5,55.2"/>
		<path fill="#F7941D" d="M25.2,55.2H22c-1.1,0-1.9,0.9-1.9,1.9c0,1.1,0.9,1.9,1.9,1.9h3.2c1.1,0,1.9-0.9,1.9-1.9
			C27.2,56,26.3,55.2,25.2,55.2L25.2,55.2z M25.2,55.2"/>
		<path fill="#F7941D" d="M9.2,36.6h11.3c0.8,1.9,2.6,3.2,4.8,3.2h25.7c2.8,0,5.2-2.3,5.2-5.2c0-0.5-0.1-0.9-0.2-1.3
			c2.5-0.3,4.5-2.5,4.5-5.1c0-0.7-0.1-1.4-0.4-2c1.5-0.9,2.5-2.6,2.5-4.4c0-2.2-1.4-4.2-3.5-4.9c0.2-0.5,0.2-1,0.2-1.6
			c0-2.8-2.3-5.2-5.2-5.2h-7.4c0.1-0.4,0.2-0.8,0.2-1.3c0-2.8-2.3-5.2-5.2-5.2H28.4c-3.9,0-7.3,2.7-8.1,6.4H9.2
			c-1.1,0-1.9,0.9-1.9,1.9v22.5C7.2,35.7,8.1,36.6,9.2,36.6L9.2,36.6z M11.1,14.1H22c1.1,0,1.9-0.9,1.9-1.9c0-2.5,2-4.5,4.5-4.5
			h13.3c0.7,0,1.3,0.6,1.3,1.3c0,0.7-0.6,1.3-1.3,1.3h-6.8c-1.1,0-1.9,0.9-1.9,1.9c0,4.2-3.4,7.7-7.7,7.7c-1.1,0-1.9,0.9-1.9,1.9
			c0,1.1,0.9,1.9,1.9,1.9c5.7,0,10.5-4.2,11.4-9.6h17.5c0.7,0,1.3,0.6,1.3,1.3c0,0.7-0.6,1.3-1.3,1.3H43.4c-1.1,0-1.9,0.9-1.9,1.9
			c0,1.1,0.9,1.9,1.9,1.9h13.9c0.7,0,1.3,0.6,1.3,1.3c0,0.7-0.6,1.3-1.3,1.3H44.5c-1.1,0-1.9,0.9-1.9,1.9c0,1.1,0.9,1.9,1.9,1.9
			h10.7c0.7,0,1.3,0.6,1.3,1.3c0,0.7-0.6,1.3-1.3,1.3H41.3c-1.1,0-1.9,0.9-1.9,1.9c0,1.1,0.9,1.9,1.9,1.9h9.6c0.7,0,1.3,0.6,1.3,1.3
			c0,0.7-0.6,1.3-1.3,1.3H25.2c-0.7,0-1.3-0.6-1.3-1.3c0-1.1-0.9-1.9-1.9-1.9H11.1V14.1z M11.1,14.1"/>
	</g>
</g>
</svg>
