<?xml version="1.0" encoding="utf-8"?>
<!-- Generator: Adobe Illustrator 18.1.1, SVG Export Plug-In . SVG Version: 6.00 Build 0)  -->
<svg version="1.1" id="Layer_1" xmlns="http://www.w3.org/2000/svg" xmlns:xlink="http://www.w3.org/1999/xlink" x="0px" y="0px"
	 viewBox="0 0 30 36.9" enable-background="new 0 0 30 36.9" xml:space="preserve">
<g>
	<path d="M9.6,6.9c-2.7,2.7-2.7,7,0,9.6c0.6,0.6,1.2,1,2,1.4l0,11.9l2.8,2.8l2.8-2.8l-1.7-1.7l1.7-1.7l-1.7-1.7l1.7-1.7l0-5.1
		c0.7-0.3,1.4-0.8,2-1.4c2.7-2.7,2.7-7,0-9.6C16.5,4.2,12.2,4.2,9.6,6.9L9.6,6.9z M16.1,10.5c-1,1-2.4,1-3.4,0c-1-1-1-2.4,0-3.4
		c1-1,2.4-1,3.4,0C17,8.1,17,9.6,16.1,10.5L16.1,10.5z M16.1,10.5"/>
</g>
</svg>
