<?xml version="1.0" encoding="utf-8"?>
<!-- Generator: Adobe Illustrator 18.1.1, SVG Export Plug-In . SVG Version: 6.00 Build 0)  -->
<svg version="1.1" id="Layer_1" xmlns="http://www.w3.org/2000/svg" xmlns:xlink="http://www.w3.org/1999/xlink" x="0px" y="0px"
	 viewBox="0 96 612 500" enable-background="new 0 96 612 500" xml:space="preserve">
<g>
	<g>
		<path d="M205.9,525.6c0,5.4-4.7,11.4-10.3,13.4L63.9,585.8c-5.7,2-10.3-0.7-10.3-6.1V166.4c0-5.4,4.7-11.4,10.3-13.4l131.6-46.8
			c5.7-2,10.3,0.7,10.3,6.1V525.6z M205.9,525.6"/>
		<path d="M378.6,579.7c0,5.4-4.7,8.1-10.3,6.1L236.6,539c-5.7-2-10.3-8.1-10.3-13.4V112.2c0-5.4,4.7-8.1,10.3-6.1L368.2,153
			c5.7,2,10.3,8.1,10.3,13.4V579.7z M378.6,579.7"/>
		<path d="M551.3,525.6c0,5.4-4.7,11.4-10.3,13.4l-131.6,46.8c-5.7,2-10.3-0.7-10.3-6.1V166.4c0-5.4,4.7-11.4,10.3-13.4L541,106.1
			c5.7-2,10.3,0.7,10.3,6.1V525.6z M551.3,525.6"/>
	</g>
</g>
</svg>
