<?xml version="1.0" encoding="utf-8"?>
<!-- Generator: Adobe Illustrator 18.1.1, SVG Export Plug-In . SVG Version: 6.00 Build 0)  -->
<svg version="1.1" id="Layer_1" xmlns="http://www.w3.org/2000/svg" xmlns:xlink="http://www.w3.org/1999/xlink" x="0px" y="0px"
	 viewBox="0 96 612 500" enable-background="new 0 96 612 500" xml:space="preserve">
<g>
	<path d="M216.1,269.6l-29.6-28c3.4-6.3,5.6-13.3,5.6-21c0-24.3-19.6-43.9-43.9-43.9s-43.9,19.6-43.9,43.9
		c0,24.2,19.7,43.9,43.9,43.9c8.5,0,16.5-2.5,23.2-6.8l29.6,27.9C205.4,279.8,210.4,274.4,216.1,269.6L216.1,269.6z M216.1,269.6"/>
	<path d="M341.2,266.1l39.3-66.1c3.9,1.1,7.9,1.9,12.1,1.9c24.3,0,43.9-19.7,43.9-43.9c0-24.2-19.7-43.8-43.9-43.8
		c-24.3,0-43.9,19.6-43.9,43.8c0,12,4.9,22.9,12.7,30.9l-39.2,65.9C329,257.8,335.3,261.6,341.2,266.1L341.2,266.1z M341.2,266.1"/>
	<path d="M476.7,321.5c-18.8,0-34.8,12-41,28.8l-54.6-5.4c0,0.4,0.1,0.8,0.1,1.2c0,7.1-0.7,14.1-2.2,20.8l54.6,5.4
		c3.3,21,21.3,37,43.2,37c24.3,0,43.9-19.6,43.9-43.8C520.6,341.1,501,321.5,476.7,321.5L476.7,321.5z M476.7,321.5"/>
	<path d="M326.1,494l-12.2-53.4c-6.9,2.4-14,4.1-21.5,5l12.2,53.4c-14,7.3-23.7,21.8-23.7,38.8c0,24.2,19.6,43.8,43.9,43.8
		c24.2,0,43.9-19.6,43.9-43.8C368.6,514,349.7,494.7,326.1,494L326.1,494z M326.1,494"/>
	<path d="M182.8,367.2l-68,22.8c-7.8-12-21.4-19.9-36.7-19.9c-24.3,0-43.9,19.6-43.9,43.8c0,24.3,19.6,43.9,43.9,43.9
		s43.9-19.7,43.9-43.9c0-1-0.2-2-0.3-2.9l68.2-22.8C186.9,381.5,184.4,374.5,182.8,367.2L182.8,367.2z M182.8,367.2"/>
	<path d="M356.1,346c0,41.6-33.7,75.2-75.2,75.2c-41.5,0-75.2-33.7-75.2-75.2c0-41.5,33.7-75.2,75.2-75.2
		C322.4,270.8,356.1,304.5,356.1,346L356.1,346z M356.1,346"/>
</g>
</svg>
