<?xml version="1.0" encoding="utf-8"?>
<!-- Generator: Adobe Illustrator 18.1.1, SVG Export Plug-In . SVG Version: 6.00 Build 0)  -->
<svg version="1.1" id="Layer_1" xmlns="http://www.w3.org/2000/svg" xmlns:xlink="http://www.w3.org/1999/xlink" x="0px" y="0px"
	 viewBox="0 96 612 500" enable-background="new 0 96 612 500" xml:space="preserve">
<g>
	<path d="M494.6,313.4l-47.2-7.9c-3.4-14-8.4-27.4-15-40l30.2-37.5c6.4-7.9,6.1-19.3-0.6-27L443.3,180c-6.8-7.6-18.1-9.3-26.7-3.8
		l-40.4,25.4c-17.8-12.4-37.9-21.6-59.6-26.9l-7.9-47.5c-1.7-10.1-10.4-17.4-20.6-17.4h-28.3c-10.2,0-18.9,7.4-20.5,17.4l-7.9,47.5
		c-17.9,4.4-34.8,11.5-50.1,20.8l-38.4-27.4c-8.3-5.9-19.6-5-26.9,2.2l-20,20c-7.2,7.2-8.1,18.6-2.2,26.9l27.5,38.5
		c-9.3,15.2-16.3,32-20.7,49.8l-47.7,8c-10,1.7-17.4,10.4-17.4,20.6v28.3c0,10.2,7.4,18.9,17.4,20.6l47.7,8
		c3.6,14.6,8.8,28.6,15.8,41.6l-30.1,37.3c-6.4,7.9-6.1,19.3,0.6,27l18.8,21.1c6.8,7.7,18.1,9.2,26.7,3.8l41-25.7
		c17.3,11.9,36.9,20.6,58,25.7l7.9,47.5c1.6,10.1,10.3,17.4,20.5,17.4h28.3c10.2,0,18.9-7.4,20.6-17.4l7.9-47.5
		c17.7-4.3,34.3-11.3,49.5-20.5l40,28.6c8.3,5.9,19.6,5,26.9-2.2l20-20c7.2-7.2,8.2-18.6,2.2-26.9l-28.5-39.9
		c9.3-15.3,16.3-32,20.7-49.9l47.2-7.9c10.1-1.7,17.4-10.4,17.4-20.6V334C512,323.7,504.7,315,494.6,313.4L494.6,313.4z
		 M274.5,437.5c-49.4,0-89.4-40-89.4-89.4c0-49.4,40-89.4,89.4-89.4c49.3,0,89.4,40,89.4,89.4C363.8,397.4,323.8,437.5,274.5,437.5
		L274.5,437.5z M274.5,437.5"/>
</g>
</svg>
