<?xml version="1.0" encoding="utf-8"?>
<!-- Generator: Adobe Illustrator 18.1.1, SVG Export Plug-In . SVG Version: 6.00 Build 0)  -->
<svg version="1.1" id="Layer_1" xmlns="http://www.w3.org/2000/svg" xmlns:xlink="http://www.w3.org/1999/xlink" x="0px" y="0px"
	 viewBox="0 96 612 500" enable-background="new 0 96 612 500" xml:space="preserve">
<g>
	<path d="M358.6,548.1H153.4V141.6h221.2v61.6c0,6.2,5,11.3,11.3,11.3h59.8l0,201.9c10.5,0.2,20.7,2.2,30.3,5.8V197.8
		c0-2.4-1-4.7-2.7-6.4L396,114c-1.7-1.7-4-2.7-6.4-2.7H150.4c-15.1,0-27.3,12.2-27.3,27.3v412.5c0,15,12.2,27.3,27.3,27.3h230.2
		C371.3,569.9,363.8,559.6,358.6,548.1L358.6,548.1z M358.6,548.1"/>
	<path d="M554.1,457.9c0-5.1-2-9.9-5.6-13.5l-14.3-14.3c-3.6-3.6-8.4-5.6-13.5-5.6c-5.1,0-9.9,2-13.5,5.6l-21.8,21.8
		c-11.6-8.3-25.9-13.3-41.3-13.3c-39.2,0-71,31.8-71,71c0,39.2,31.8,71,71,71c39.2,0,71-31.8,71-71c0-1.6-0.1-3.2-0.2-4.7l33.5-33.5
		C552.2,467.8,554.1,463,554.1,457.9L554.1,457.9z M533,462.1l-68.3,68.3c-1.4,1.4-3.4,2.2-5.4,2.2h0c-2,0-4-0.8-5.4-2.3l-31.7-31.7
		c-3-3-3-7.9,0-10.9l6.1-6.1c3-3,7.9-3,10.9,0l20.1,20.1l56.7-56.7c1.4-1.4,3.4-2.2,5.4-2.2c2,0,4,0.8,5.4,2.2l6.2,6.2
		C536,454.3,536,459.1,533,462.1L533,462.1z M533,462.1"/>
	<path d="M313.2,232.5l-63.9,14.6l14.6-63.9c-22.4-5.6-47.1,0.3-64.6,17.8c-26.5,26.5-26.5,69.5,0,96c26.5,26.5,69.5,26.5,96,0
		C312.8,279.5,318.8,254.8,313.2,232.5L313.2,232.5z M313.2,232.5"/>
	<path d="M313.8,182.6c-9-9-19.9-14.9-31.4-17.8l-14.6,63.9l63.9-14.6C328.7,202.5,322.8,191.6,313.8,182.6L313.8,182.6z
		 M313.8,182.6"/>
	<path d="M203.1,389.3h23.4c6.5,0,11.7-5.3,11.7-11.7c0-6.5-5.3-11.7-11.7-11.7h-23.4c-6.5,0-11.7,5.3-11.7,11.7
		C191.3,384,196.6,389.3,203.1,389.3L203.1,389.3z M203.1,389.3"/>
	<path d="M293.1,409.2h-90.1c-6.5,0-11.7,5.3-11.7,11.7c0,6.5,5.3,11.7,11.7,11.7h90.1c6.5,0,11.7-5.3,11.7-11.7
		C304.9,414.5,299.6,409.2,293.1,409.2L293.1,409.2z M293.1,409.2"/>
	<path d="M279.8,452.6h-76.7c-6.5,0-11.7,5.3-11.7,11.7c0,6.5,5.3,11.7,11.7,11.7h76.7c6.5,0,11.7-5.3,11.7-11.7
		C291.5,457.8,286.3,452.6,279.8,452.6L279.8,452.6z M279.8,452.6"/>
</g>
</svg>
