<?xml version="1.0" encoding="utf-8"?>
<!-- Generator: Adobe Illustrator 18.1.1, SVG Export Plug-In . SVG Version: 6.00 Build 0)  -->
<svg version="1.1" id="Layer_1" xmlns="http://www.w3.org/2000/svg" xmlns:xlink="http://www.w3.org/1999/xlink" x="0px" y="0px"
	 viewBox="0 0 51 40.2" enable-background="new 0 0 51 40.2" xml:space="preserve">
<g>
	<g>
		<path d="M46.1,8.8v12.3c0,0-2.6,0.5-3.2,0.6c-0.5,0.1-2.2,0.6-3.5-0.6c-1.9-1.8-8.7-8.5-8.7-8.5s-1.2-1.1-3-0.2
			c-1.7,0.9-4.3,2.2-5.3,2.7c-2,1.1-3.7-0.6-3.7-1.9c0-1,0.6-1.7,1.5-2.2c2.4-1.5,7.5-4.3,9.7-5.5c1.3-0.7,2.2-0.7,4,0.7
			C36.1,8.2,38,9.9,38,9.9s0.6,0.5,1.6,0.3C42.2,9.7,46.1,8.8,46.1,8.8L46.1,8.8z M19.2,29.7c0.3-0.8,0.2-1.8-0.4-2.4
			c-0.6-0.6-1.4-0.7-2.2-0.5c0.2-0.8,0.1-1.6-0.5-2.2C15.6,24,14.8,23.8,14,24c0.2-0.8,0.1-1.6-0.5-2.2c-0.9-0.9-2.4-0.9-3.4,0.1
			c-1,1-1.6,2.7-0.8,3.7c0.9,1,1.9,0.4,2.7,0.2c-0.2,0.8-0.9,1.5-0.1,2.5c0.8,1,1.9,0.4,2.7,0.2c-0.2,0.8-0.8,1.6-0.1,2.5
			c0.8,0.9,2.1,0.4,2.9,0.2c-0.3,0.8-1,1.7-0.1,2.7c0.9,1,3,0.5,4-0.4c1-1,1.1-2.5,0.2-3.4C21,29.6,20,29.4,19.2,29.7L19.2,29.7z
			 M37.6,23.3c-7.3-7.3-3.9-3.9-7.8-7.8c0,0-1.2-1.2-2.7-0.5c-1.1,0.5-2.5,1.1-3.6,1.6c-1.2,0.6-2,0.8-2.4,0.8
			c-2.2,0-4.1-1.8-4.1-4.1c0-1.5,0.8-2.7,1.9-3.4c1.6-1.1,5.3-3.1,5.3-3.1s-1.1-1.4-3.6-1.4c-2.5,0-7.7,3.4-7.7,3.4
			s-1.5,0.9-3.6,0.1L5.4,7.5v14.1c0,0,1.2,0.3,2.2,0.8c0.2-0.7,0.6-1.3,1.1-1.8c1.7-1.6,4.6-1.7,6.2,0c0.5,0.5,0.8,1.1,1,1.7
			c0.6,0.2,1.2,0.5,1.7,1c0.5,0.5,0.8,1.1,1,1.7c0.6,0.2,1.2,0.5,1.7,1c0.5,0.5,0.9,1.2,1,1.9c0.7,0.2,1.3,0.6,1.7,1
			c0.9,1,1.3,2.3,1.1,3.6c0,0,0,0,0,0c0,0,0.6,0.7,0.9,1c0.7,0.7,1.8,0.7,2.5,0c0.7-0.7,0.7-1.8,0-2.5c0,0-2.5-2.6-2.3-2.8
			c0.2-0.2,3.4,3.1,3.4,3.2c0.7,0.7,1.8,0.7,2.5,0c0.7-0.7,0.7-1.8,0-2.5c0,0-0.2-0.2-0.2-0.2c0,0-3.1-2.8-2.9-3
			c0.2-0.2,4.1,3.4,4.1,3.4c0.7,0.6,1.8,0.6,2.5,0c0.7-0.7,0.7-1.7,0.1-2.4c0,0-3-3.1-2.7-3.4c0.2-0.2,3.2,2.8,3.2,2.8
			c0.7,0.7,1.8,0.7,2.5,0C38.3,25.1,38.3,24,37.6,23.3C37.6,23.3,37.6,23.3,37.6,23.3L37.6,23.3z M37.6,23.3"/>
	</g>
</g>
</svg>
