<?xml version="1.0" encoding="utf-8"?>
<!-- Generator: Adobe Illustrator 18.1.1, SVG Export Plug-In . SVG Version: 6.00 Build 0)  -->
<svg version="1.1" id="Layer_1" xmlns="http://www.w3.org/2000/svg" xmlns:xlink="http://www.w3.org/1999/xlink" x="0px" y="0px"
	 viewBox="0 96 612 500" enable-background="new 0 96 612 500" xml:space="preserve">
<g>
	<path d="M298,113.9c-128,0-232.6,104.6-232.6,232.6c0,128,104.6,231.6,232.6,231.6c128,0,231.6-103.6,231.6-231.6
		C529.6,218.5,426,113.9,298,113.9L298,113.9z M298,536.1c-104.6,0-189.6-85-189.6-189.6c0-104.6,85-189.6,189.6-189.6
		c104.6,0,189.6,85,189.6,189.6C487.6,451.1,402.6,536.1,298,536.1L298,536.1z M298,536.1"/>
	<path d="M329.3,429.6l-19.5,8.8l25.4-130c2.9-13.7-11.7-28.3-27.4-19.5l-47.9,26.4c-8.8,4.9-11.7,16.6-6.8,25.4
		c4.9,8.8,16.6,11.7,25.4,6.8l11.7-5.9l-24.4,124.1c-2,10.8,6.8,22.5,18.6,22.5c2.9,0,5.9-1,7.8-2l51.8-22.5
		c9.8-3.9,13.7-14.7,9.8-24.4C349.8,429.6,339,425.7,329.3,429.6L329.3,429.6z M329.3,429.6"/>
	<path d="M316.6,253.6c14.7,0,26.4-11.7,26.4-26.4c0-14.7-11.7-26.4-26.4-26.4c-14.7,0-26.4,11.7-26.4,26.4
		C290.2,241.9,301.9,253.6,316.6,253.6L316.6,253.6z M316.6,253.6"/>
</g>
</svg>
