<?xml version="1.0" encoding="utf-8"?>
<!-- Generator: Adobe Illustrator 18.1.1, SVG Export Plug-In . SVG Version: 6.00 Build 0)  -->
<svg version="1.1" id="Layer_1" xmlns="http://www.w3.org/2000/svg" xmlns:xlink="http://www.w3.org/1999/xlink" x="0px" y="0px"
	 viewBox="0 0 55.3 68.3" enable-background="new 0 0 55.3 68.3" xml:space="preserve">
<path fill="#FFFFFF" d="M17.4,26.6v5.6c0,0.2-0.1,0.4-0.2,0.5c-0.1,0.1-0.3,0.2-0.5,0.2c-0.2,0-0.4-0.1-0.6-0.2
	c-0.2-0.1-0.2-0.3-0.2-0.5v-5.6h-2.1l2.2-7.4h-0.4c-0.2,0.8-0.4,1.5-0.6,2c-0.1,0.5-0.3,1-0.4,1.5c-0.2,0.5-0.3,0.8-0.3,0.9
	c-0.1,0.3-0.3,0.5-0.6,0.5l-0.2,0C13.2,24,13,23.8,13,23.5c0-0.1,0-0.1,0-0.2c0-0.1,0.1-0.2,0.2-0.6c0.1-0.3,0.2-0.7,0.3-1.2
	c0.1-0.5,0.3-1,0.4-1.5c0.2-0.5,0.3-1.1,0.5-1.5c0.1-0.4,0.3-0.7,0.7-1c0.4-0.3,0.7-0.5,1.1-0.5h2.6c0.4,0,0.8,0.1,1.1,0.5
	c0.3,0.3,0.6,0.6,0.7,1c0.1,0.5,0.3,1,0.4,1.5c0.1,0.5,0.3,1,0.4,1.5c0.1,0.5,0.2,0.8,0.3,1.2c0.1,0.3,0.1,0.5,0.2,0.6l0,0.2
	c0,0.3-0.2,0.5-0.5,0.6l-0.2,0c-0.3,0-0.5-0.2-0.6-0.5c0-0.1-0.1-0.4-0.2-0.9c-0.1-0.5-0.3-1-0.5-1.5c-0.2-0.5-0.4-1.2-0.6-2h-0.4
	l2.2,7.4h-2.1v5.6c0,0.2-0.1,0.4-0.2,0.5c-0.1,0.1-0.3,0.2-0.5,0.2c-0.2,0-0.4-0.1-0.5-0.2c-0.1-0.1-0.2-0.3-0.2-0.5v-5.6H17.4z
	 M17.6,16.6c0.4,0,0.8-0.2,1.1-0.5c0.3-0.3,0.5-0.7,0.5-1.2c0-0.4-0.2-0.8-0.5-1.1c-0.3-0.3-0.7-0.5-1.1-0.5c-0.5,0-0.9,0.2-1.2,0.5
	C16.1,14.2,16,14.5,16,15c0,0.5,0.2,0.8,0.5,1.2C16.8,16.4,17.2,16.6,17.6,16.6L17.6,16.6z"/>
<path fill="#FFFFFF" d="M28.8,49.1v5.6c0,0.2-0.1,0.4-0.2,0.5c-0.1,0.1-0.3,0.2-0.5,0.2c-0.2,0-0.4-0.1-0.6-0.2
	c-0.2-0.1-0.2-0.3-0.2-0.5v-5.6h-2.1l2.2-7.4H27c-0.2,0.8-0.4,1.5-0.6,2c-0.1,0.5-0.3,1-0.4,1.5c-0.2,0.5-0.3,0.8-0.3,0.9
	c-0.1,0.3-0.3,0.5-0.6,0.5l-0.2,0c-0.3-0.1-0.5-0.3-0.5-0.6c0-0.1,0-0.1,0-0.2c0-0.1,0.1-0.2,0.2-0.6c0.1-0.3,0.2-0.7,0.3-1.2
	c0.1-0.5,0.3-1,0.4-1.5c0.2-0.5,0.3-1.1,0.5-1.5c0.1-0.4,0.3-0.7,0.7-1c0.4-0.3,0.7-0.5,1.1-0.5h2.6c0.4,0,0.8,0.1,1.1,0.5
	c0.3,0.3,0.6,0.6,0.7,1c0.1,0.5,0.3,1,0.4,1.5c0.1,0.5,0.3,1,0.4,1.5c0.1,0.5,0.2,0.8,0.3,1.2c0.1,0.3,0.1,0.5,0.2,0.6l0,0.2
	c0,0.3-0.2,0.5-0.5,0.6l-0.2,0c-0.3,0-0.5-0.2-0.6-0.5c0-0.1-0.1-0.4-0.2-0.9c-0.1-0.5-0.3-1-0.5-1.5c-0.2-0.5-0.4-1.2-0.6-2h-0.4
	l2.2,7.4h-2.1v5.6c0,0.2-0.1,0.4-0.2,0.5c-0.1,0.1-0.3,0.2-0.5,0.2c-0.2,0-0.4-0.1-0.5-0.2c-0.1-0.1-0.2-0.3-0.2-0.5v-5.6H28.8z
	 M29,39.1c0.4,0,0.8-0.2,1.1-0.5c0.3-0.3,0.5-0.7,0.5-1.2c0-0.4-0.2-0.8-0.5-1.1c-0.3-0.3-0.7-0.5-1.1-0.5c-0.5,0-0.9,0.2-1.2,0.5
	c-0.3,0.3-0.5,0.7-0.5,1.1c0,0.5,0.2,0.8,0.5,1.2C28.1,38.9,28.5,39.1,29,39.1L29,39.1z"/>
<path fill="#FFFFFF" d="M27.1,17c-0.6,0-1,0.2-1.5,0.6c-0.4,0.4-0.6,0.9-0.6,1.5v5c0,0.2,0.1,0.4,0.2,0.5c0.1,0.1,0.3,0.2,0.5,0.2
	c0.2,0,0.4-0.1,0.5-0.2c0.1-0.1,0.2-0.3,0.2-0.5v-4.5h0.4v12.5c0,0.2,0.1,0.5,0.3,0.6c0.2,0.2,0.4,0.3,0.7,0.3
	c0.3,0,0.5-0.1,0.7-0.3c0.2-0.2,0.3-0.4,0.3-0.6v-7.2h0.4v7.2c0,0.2,0.1,0.5,0.3,0.6c0.2,0.2,0.4,0.3,0.7,0.3c0.2,0,0.5-0.1,0.6-0.3
	c0.2-0.2,0.3-0.4,0.3-0.6V19.6h0.4v4.5c0,0.2,0.1,0.4,0.2,0.5c0.2,0.1,0.3,0.2,0.5,0.2c0.2,0,0.4-0.1,0.5-0.2
	c0.1-0.1,0.2-0.3,0.2-0.5v-5c0-0.6-0.2-1-0.6-1.5c-0.4-0.4-0.9-0.6-1.5-0.6H27.1z"/>
<path fill="#FFFFFF" d="M28.9,16.6c0.4,0,0.8-0.2,1.1-0.5c0.3-0.3,0.5-0.7,0.5-1.2c0-0.4-0.2-0.8-0.5-1.1c-0.3-0.3-0.7-0.5-1.1-0.5
	c-0.5,0-0.9,0.2-1.1,0.5c-0.3,0.3-0.5,0.7-0.5,1.1c0,0.5,0.1,0.8,0.5,1.2C28.1,16.4,28.5,16.6,28.9,16.6L28.9,16.6z"/>
<path fill="#FFFFFF" d="M16.6,39.5c-0.6,0-1,0.2-1.5,0.6c-0.4,0.4-0.6,0.9-0.6,1.5v5c0,0.2,0.1,0.4,0.2,0.5c0.1,0.1,0.3,0.2,0.5,0.2
	c0.2,0,0.4-0.1,0.5-0.2c0.1-0.1,0.2-0.3,0.2-0.5v-4.5h0.4v12.5c0,0.2,0.1,0.5,0.3,0.6c0.2,0.2,0.4,0.3,0.7,0.3
	c0.3,0,0.5-0.1,0.7-0.3c0.2-0.2,0.3-0.4,0.3-0.6v-7.2h0.4v7.2c0,0.2,0.1,0.5,0.3,0.6c0.2,0.2,0.4,0.3,0.7,0.3c0.2,0,0.5-0.1,0.6-0.3
	c0.2-0.2,0.3-0.4,0.3-0.6V42.1h0.4v4.5c0,0.2,0.1,0.4,0.2,0.5c0.2,0.1,0.3,0.2,0.5,0.2c0.2,0,0.4-0.1,0.5-0.2
	c0.1-0.1,0.2-0.3,0.2-0.5v-5c0-0.6-0.2-1-0.6-1.5c-0.4-0.4-0.9-0.6-1.5-0.6H16.6z"/>
<path fill="#FFFFFF" d="M18.4,39.1c0.4,0,0.8-0.2,1.1-0.5c0.3-0.3,0.5-0.7,0.5-1.2c0-0.4-0.2-0.8-0.5-1.1c-0.3-0.3-0.7-0.5-1.1-0.5
	c-0.5,0-0.9,0.2-1.1,0.5c-0.3,0.3-0.5,0.7-0.5,1.1c0,0.5,0.1,0.8,0.5,1.2C17.6,38.9,18,39.1,18.4,39.1L18.4,39.1z"/>
<path fill="#FFFFFF" d="M39,26.4V32c0,0.2-0.1,0.4-0.2,0.5c-0.1,0.1-0.3,0.2-0.5,0.2c-0.2,0-0.4-0.1-0.6-0.2
	c-0.2-0.1-0.2-0.3-0.2-0.5v-5.6h-2.1l2.2-7.4h-0.4c-0.2,0.8-0.4,1.5-0.6,2c-0.1,0.5-0.3,1-0.4,1.5c-0.2,0.5-0.3,0.8-0.3,0.9
	c-0.1,0.3-0.3,0.5-0.6,0.5l-0.2,0c-0.3-0.1-0.5-0.3-0.5-0.6c0-0.1,0-0.1,0-0.2c0-0.1,0.1-0.2,0.2-0.6c0.1-0.3,0.2-0.7,0.3-1.2
	c0.1-0.5,0.3-1,0.4-1.5c0.2-0.5,0.3-1.1,0.5-1.5c0.1-0.4,0.3-0.7,0.7-1c0.4-0.3,0.7-0.5,1.1-0.5h2.6c0.4,0,0.8,0.1,1.1,0.5
	c0.3,0.3,0.6,0.6,0.7,1c0.1,0.5,0.3,1,0.4,1.5c0.1,0.5,0.3,1,0.4,1.5c0.1,0.5,0.2,0.8,0.3,1.2c0.1,0.3,0.1,0.5,0.2,0.6l0,0.2
	c0,0.3-0.2,0.5-0.5,0.6l-0.2,0c-0.3,0-0.5-0.2-0.6-0.5c0-0.1-0.1-0.4-0.2-0.9c-0.1-0.5-0.3-1-0.5-1.5c-0.2-0.5-0.4-1.2-0.6-2h-0.4
	l2.2,7.4h-2.1V32c0,0.2-0.1,0.4-0.2,0.5c-0.1,0.1-0.3,0.2-0.5,0.2c-0.2,0-0.4-0.1-0.5-0.2c-0.1-0.1-0.2-0.3-0.2-0.5v-5.6H39z
	 M39.3,16.4c0.4,0,0.8-0.2,1.1-0.5c0.3-0.3,0.5-0.7,0.5-1.2c0-0.4-0.2-0.8-0.5-1.1c-0.3-0.3-0.7-0.5-1.1-0.5c-0.5,0-0.9,0.2-1.2,0.5
	c-0.3,0.3-0.5,0.7-0.5,1.1c0,0.5,0.2,0.8,0.5,1.2C38.4,16.2,38.8,16.4,39.3,16.4L39.3,16.4z"/>
<path fill="#FFFFFF" d="M38.3,39.3c-0.6,0-1,0.2-1.5,0.6c-0.4,0.4-0.6,0.9-0.6,1.5v5c0,0.2,0.1,0.4,0.2,0.5c0.1,0.1,0.3,0.2,0.5,0.2
	c0.2,0,0.4-0.1,0.5-0.2c0.1-0.1,0.2-0.3,0.2-0.5v-4.5H38v12.5c0,0.2,0.1,0.5,0.3,0.6c0.2,0.2,0.4,0.3,0.7,0.3c0.3,0,0.5-0.1,0.7-0.3
	c0.2-0.2,0.3-0.4,0.3-0.6v-7.2h0.4v7.2c0,0.2,0.1,0.5,0.3,0.6c0.2,0.2,0.4,0.3,0.7,0.3c0.2,0,0.5-0.1,0.6-0.3
	c0.2-0.2,0.3-0.4,0.3-0.6V41.9h0.4v4.5c0,0.2,0.1,0.4,0.2,0.5c0.2,0.1,0.3,0.2,0.5,0.2c0.2,0,0.4-0.1,0.5-0.2
	c0.1-0.1,0.2-0.3,0.2-0.5v-5c0-0.6-0.2-1-0.6-1.5c-0.4-0.4-0.9-0.6-1.5-0.6H38.3z"/>
<path fill="#FFFFFF" d="M40.1,38.9c0.4,0,0.8-0.2,1.1-0.5c0.3-0.3,0.5-0.7,0.5-1.2c0-0.4-0.2-0.8-0.5-1.1c-0.3-0.3-0.7-0.5-1.1-0.5
	c-0.5,0-0.9,0.2-1.1,0.5c-0.3,0.3-0.5,0.7-0.5,1.1c0,0.5,0.1,0.8,0.5,1.2C39.2,38.7,39.6,38.9,40.1,38.9L40.1,38.9z"/>
</svg>
