<?xml version="1.0" encoding="utf-8"?>
<!-- Generator: Adobe Illustrator 18.1.1, SVG Export Plug-In . SVG Version: 6.00 Build 0)  -->
<svg version="1.1" id="Layer_1" xmlns="http://www.w3.org/2000/svg" xmlns:xlink="http://www.w3.org/1999/xlink" x="0px" y="0px"
	 viewBox="0 0 48.4 41.8" enable-background="new 0 0 48.4 41.8" xml:space="preserve">
<g>
	<path fill="#FFFFFF" d="M10.2,36.4h32.9v-8.2C20.8,26.4,10.2,36.4,10.2,36.4L10.2,36.4z M10.2,36.4"/>
	<path fill="#FFFFFF" d="M35,22.6v-5.3c1,0.2,1.8,0.8,1.8-1.6c0-2.7-2.1-8.1-2.1-8.1s-2.1,5.4-2.1,8.1c0,2.5,0.8,1.7,1.8,1.6v5.3
		c-1.3,0.1-2.7,0.3-4,0.6v-6.5l0.2,0.1c0.1,0.1,0.3,0.1,0.4,0.1c0.2,0,0.4-0.1,0.5-0.3c0.2-0.3,0.2-0.7-0.1-0.9l-1.6-1.2
		c0,0,0,0,0-0.1v-1.1c0-0.4-0.3-0.7-0.7-0.7c-0.4,0-0.7,0.3-0.7,0.7v0.2l-1.5-1.1c-0.2-0.2-0.6-0.2-0.8,0l-4.4,3.3
		c-0.3,0.2-0.4,0.6-0.1,0.9c0.2,0.3,0.6,0.4,0.9,0.1l0.2-0.1v3.8c-6.1-3.2-12.6-2.2-12.6-2.2v3.7c0,0,8.8-1.9,16.9,1.7
		c-1-1-2.1-1.8-3.2-2.5v-5.3l2.7-2.1l2.7,2.1v7.6c-7.1,1.5-13.1,4.5-16,6.4c6.5-2,18.6-6.2,29.6-3.5v-3.5
		C40.4,22.4,37.7,22.4,35,22.6L35,22.6z M35,22.6"/>
</g>
</svg>
