<?xml version="1.0" encoding="utf-8"?>
<!-- Generator: Adobe Illustrator 18.1.1, SVG Export Plug-In . SVG Version: 6.00 Build 0)  -->
<svg version="1.1" id="Layer_1" xmlns="http://www.w3.org/2000/svg" xmlns:xlink="http://www.w3.org/1999/xlink" x="0px" y="0px"
	 viewBox="0 0 369 28" enable-background="new 0 0 369 28" xml:space="preserve">
<g>
	<g>
		<path fill="#3B3A3E" d="M11.9,15.8h-1.8v3.5H8.3V10h3.6c1.9,0,3.1,1.3,3.1,2.9C15,14.5,13.8,15.8,11.9,15.8z M11.8,11.6h-1.7v2.5
			h1.7c0.8,0,1.3-0.5,1.3-1.3C13.2,12.1,12.7,11.6,11.8,11.6z"/>
		<path fill="#3B3A3E" d="M22.4,18.3c-0.6,0.7-1.4,1-2.5,1c-1.1,0-1.9-0.4-2.5-1c-0.9-0.9-0.9-2.1-0.9-3.7c0-1.6,0-2.8,0.9-3.7
			c0.6-0.6,1.5-1,2.5-1c1.1,0,1.8,0.4,2.5,1c0.9,0.9,0.9,2.1,0.9,3.7C23.4,16.2,23.4,17.4,22.4,18.3z M21.1,12
			c-0.3-0.3-0.7-0.5-1.2-0.5c-0.5,0-0.9,0.2-1.2,0.5c-0.4,0.4-0.4,0.8-0.4,2.6c0,1.8,0.1,2.2,0.4,2.6c0.3,0.3,0.7,0.5,1.2,0.5
			c0.5,0,0.9-0.2,1.2-0.5c0.4-0.4,0.5-0.8,0.5-2.6C21.6,12.9,21.4,12.4,21.1,12z"/>
		<path fill="#3B3A3E" d="M30.4,19.3l-1.8-3.7h-1.3v3.7h-1.8V10h3.6c1.9,0,3,1.3,3,2.8c0,1.3-0.8,2.1-1.7,2.4l2.1,4H30.4z M29,11.6
			h-1.7v2.4H29c0.8,0,1.3-0.5,1.3-1.2C30.4,12.1,29.8,11.6,29,11.6z"/>
		<path fill="#3B3A3E" d="M37.9,11.6v7.6h-1.8v-7.6h-2.4V10h6.6v1.6H37.9z"/>
		<path fill="#3B3A3E" d="M43.9,11.6v2.3h3.7v1.6h-3.7v3.8h-1.8V10h6.1v1.6H43.9z"/>
		<path fill="#3B3A3E" d="M55.4,18.3c-0.6,0.7-1.4,1-2.5,1c-1.1,0-1.9-0.4-2.5-1c-0.9-0.9-0.9-2.1-0.9-3.7c0-1.6,0-2.8,0.9-3.7
			c0.6-0.6,1.5-1,2.5-1c1.1,0,1.8,0.4,2.5,1c0.9,0.9,0.9,2.1,0.9,3.7C56.4,16.2,56.4,17.4,55.4,18.3z M54.1,12
			c-0.3-0.3-0.7-0.5-1.2-0.5c-0.5,0-0.9,0.2-1.2,0.5c-0.4,0.4-0.4,0.8-0.4,2.6c0,1.8,0.1,2.2,0.4,2.6c0.3,0.3,0.7,0.5,1.2,0.5
			c0.5,0,0.9-0.2,1.2-0.5c0.4-0.4,0.5-0.8,0.5-2.6C54.6,12.9,54.5,12.4,54.1,12z"/>
		<path fill="#3B3A3E" d="M58.5,19.3V10h1.8v7.6h4.2v1.6H58.5z"/>
		<path fill="#3B3A3E" d="M66.3,19.3V10h1.8v9.3H66.3z"/>
		<path fill="#3B3A3E" d="M76.2,18.3c-0.6,0.7-1.4,1-2.5,1c-1.1,0-1.9-0.4-2.5-1c-0.9-0.9-0.9-2.1-0.9-3.7c0-1.6,0-2.8,0.9-3.7
			c0.6-0.6,1.5-1,2.5-1c1.1,0,1.8,0.4,2.5,1c0.9,0.9,0.9,2.1,0.9,3.7C77.2,16.2,77.2,17.4,76.2,18.3z M74.9,12
			c-0.3-0.3-0.7-0.5-1.2-0.5s-0.9,0.2-1.2,0.5c-0.4,0.4-0.4,0.8-0.4,2.6c0,1.8,0.1,2.2,0.4,2.6c0.3,0.3,0.7,0.5,1.2,0.5
			s0.9-0.2,1.2-0.5c0.4-0.4,0.5-0.8,0.5-2.6C75.3,12.9,75.2,12.4,74.9,12z"/>
		<path fill="#3B3A3E" d="M89.2,19.3v-5.4l-1.8,3.5h-1.2l-1.8-3.5v5.4h-1.8V10h1.8l2.4,5l2.4-5H91v9.3H89.2z"/>
		<path fill="#3B3A3E" d="M98.8,19.3l-0.5-1.6H95l-0.6,1.6h-1.9l3.4-9.3h1.4l3.4,9.3H98.8z M96.6,12.7l-1.2,3.4h2.3L96.6,12.7z"/>
		<path fill="#3B3A3E" d="M105.7,15.8H104v3.5h-1.8V10h3.6c1.9,0,3.1,1.3,3.1,2.9C108.8,14.5,107.6,15.8,105.7,15.8z M105.6,11.6
			H104v2.5h1.7c0.8,0,1.3-0.5,1.3-1.3C107,12.1,106.5,11.6,105.6,11.6z"/>
		<path fill="#3B3A3E" d="M114.2,15.8h-1.8v3.5h-1.8V10h3.6c1.9,0,3.1,1.3,3.1,2.9C117.3,14.5,116.1,15.8,114.2,15.8z M114.1,11.6
			h-1.7v2.5h1.7c0.8,0,1.3-0.5,1.3-1.3C115.5,12.1,115,11.6,114.1,11.6z"/>
		<path fill="#3B3A3E" d="M119.1,19.3V10h1.8v9.3H119.1z"/>
		<path fill="#3B3A3E" d="M128.9,19.3l-3.7-5.7v5.7h-1.8V10h1.6l3.7,5.7V10h1.8v9.3H128.9z"/>
		<path fill="#3B3A3E" d="M138.7,18.3c-0.7,0.8-1.6,1.1-2.6,1.1c-1,0-1.8-0.4-2.5-1c-0.9-0.9-0.9-2.1-0.9-3.7c0-1.6,0-2.8,0.9-3.7
			c0.6-0.6,1.5-1,2.5-1c2.1,0,3.2,1.4,3.5,3h-1.8c-0.2-0.9-0.7-1.4-1.7-1.4c-0.5,0-0.9,0.2-1.2,0.5c-0.4,0.4-0.4,0.8-0.4,2.6
			c0,1.8,0.1,2.2,0.4,2.6c0.3,0.3,0.7,0.5,1.2,0.5c0.5,0,1-0.2,1.3-0.5c0.3-0.3,0.4-0.8,0.4-1.2v-0.4h-1.7v-1.5h3.5v1.4
			C139.6,16.8,139.3,17.6,138.7,18.3z"/>
		<path fill="#3B3A3E" d="M148.6,11.6v7.6h-1.8v-7.6h-2.4V10h6.6v1.6H148.6z"/>
		<path fill="#3B3A3E" d="M158.2,18.3c-0.6,0.7-1.4,1-2.5,1c-1.1,0-1.9-0.4-2.5-1c-0.9-0.9-0.9-2.1-0.9-3.7c0-1.6,0-2.8,0.9-3.7
			c0.6-0.6,1.5-1,2.5-1c1.1,0,1.8,0.4,2.5,1c0.9,0.9,0.9,2.1,0.9,3.7C159.1,16.2,159.1,17.4,158.2,18.3z M156.8,12
			c-0.3-0.3-0.7-0.5-1.2-0.5c-0.5,0-0.9,0.2-1.2,0.5c-0.4,0.4-0.4,0.8-0.4,2.6c0,1.8,0.1,2.2,0.4,2.6c0.3,0.3,0.7,0.5,1.2,0.5
			c0.5,0,0.9-0.2,1.2-0.5c0.4-0.4,0.5-0.8,0.5-2.6C157.3,12.9,157.2,12.4,156.8,12z"/>
		<path fill="#3B3A3E" d="M166.9,18.3c-0.6,0.7-1.4,1-2.5,1c-1.1,0-1.9-0.4-2.5-1c-0.9-0.9-0.9-2.1-0.9-3.7c0-1.6,0-2.8,0.9-3.7
			c0.6-0.6,1.5-1,2.5-1c1.1,0,1.8,0.4,2.5,1c0.9,0.9,0.9,2.1,0.9,3.7C167.8,16.2,167.8,17.4,166.9,18.3z M165.5,12
			c-0.3-0.3-0.7-0.5-1.2-0.5s-0.9,0.2-1.2,0.5c-0.4,0.4-0.4,0.8-0.4,2.6c0,1.8,0.1,2.2,0.4,2.6c0.3,0.3,0.7,0.5,1.2,0.5
			s0.9-0.2,1.2-0.5c0.4-0.4,0.5-0.8,0.5-2.6C166,12.9,165.9,12.4,165.5,12z"/>
		<path fill="#3B3A3E" d="M170,19.3V10h1.8v7.6h4.2v1.6H170z"/>
		<path fill="#3B3A3E" d="M184.8,20.2V9.1h1.7v11.2H184.8z"/>
		<path fill="#3B3A3E" d="M200.1,14.2c0-0.9-0.5-1.4-1.3-1.4c-0.5,0-1,0.2-1.3,0.6c-0.4,0.4-0.6,0.9-0.8,2.4
			c-0.2,0.9-0.2,1.4-0.2,1.7c0,0.8,0.6,1.3,1.3,1.3c1,0,1.6-0.7,1.9-1.4h0.7c-0.4,1.3-1.4,2.1-2.6,2.1c-1.1,0-2-0.7-2-1.9
			c0-0.3,0-0.7,0.2-1.7c0.3-1.6,0.5-2.2,1.1-2.8c0.4-0.5,1.1-0.8,1.9-0.8c1.3,0,2,0.9,2,2.1H200.1z"/>
		<path fill="#3B3A3E" d="M205.3,16.8c-0.2,1.1-0.5,1.6-0.9,2c-0.4,0.4-0.9,0.5-1.4,0.5c-0.8,0-1.6-0.4-1.6-1.6
			c0-0.3,0.1-0.7,0.1-0.9c0.2-1.1,0.5-1.6,0.9-2c0.4-0.4,0.9-0.5,1.4-0.5c0.8,0,1.6,0.4,1.6,1.6C205.4,16.2,205.3,16.6,205.3,16.8z
			 M203.8,14.9c-0.3,0-0.7,0.1-0.9,0.4c-0.3,0.3-0.5,0.7-0.7,1.5c-0.1,0.3-0.1,0.6-0.1,0.8c0,0.8,0.4,1,0.9,1c0.3,0,0.7-0.1,0.9-0.4
			c0.3-0.3,0.5-0.7,0.7-1.5c0.1-0.4,0.1-0.7,0.1-0.9C204.7,15.2,204.3,14.9,203.8,14.9z"/>
		<path fill="#3B3A3E" d="M210.3,16.8c-0.2,1.1-0.5,1.6-0.9,2c-0.4,0.4-0.9,0.5-1.4,0.5c-0.8,0-1.6-0.4-1.6-1.6
			c0-0.3,0.1-0.7,0.1-0.9c0.2-1.1,0.5-1.6,0.9-2c0.4-0.4,0.9-0.5,1.4-0.5c0.8,0,1.6,0.4,1.6,1.6C210.4,16.2,210.3,16.6,210.3,16.8z
			 M208.7,14.9c-0.3,0-0.7,0.1-0.9,0.4c-0.3,0.3-0.5,0.7-0.7,1.5c-0.1,0.3-0.1,0.6-0.1,0.8c0,0.8,0.4,1,0.9,1c0.3,0,0.7-0.1,0.9-0.4
			c0.3-0.3,0.5-0.7,0.7-1.5c0.1-0.4,0.1-0.7,0.1-0.9C209.7,15.2,209.2,14.9,208.7,14.9z"/>
		<path fill="#3B3A3E" d="M214.6,15.3c-0.1-0.2-0.3-0.3-0.7-0.3c-0.7,0-1.3,0.6-1.4,1.3l-0.6,3h-0.7l1-4.9h0.7l-0.1,0.6
			c0.3-0.4,0.8-0.7,1.4-0.7c0.5,0,0.8,0.2,1.1,0.5L214.6,15.3z"/>
		<path fill="#3B3A3E" d="M218.4,19.3h-0.7l0.1-0.6c-0.4,0.5-0.9,0.6-1.4,0.6c-1,0-1.4-0.7-1.4-1.5c0-0.3,0-0.6,0.1-1
			c0.2-0.9,0.4-1.5,0.8-2c0.4-0.4,0.8-0.5,1.3-0.5c0.4,0,0.9,0.1,1.2,0.7l0.6-2.8h0.7L218.4,19.3z M217.4,14.9c-1,0-1.3,0.9-1.5,1.9
			c-0.1,0.3-0.1,0.6-0.1,0.9c0,0.5,0.2,1,0.9,1c1,0,1.3-0.9,1.5-1.9c0.1-0.3,0.1-0.6,0.1-0.9C218.3,15.4,218.1,14.9,217.4,14.9z"/>
		<path fill="#3B3A3E" d="M220.8,19.3h-0.7l1-4.9h0.7L220.8,19.3z M222.1,13h-0.8l0.1-0.7h0.8L222.1,13z"/>
		<path fill="#3B3A3E" d="M226.8,16.2l-0.6,3.1h-0.7l0.6-3c0-0.2,0-0.3,0-0.5c0-0.6-0.4-0.9-0.9-0.9c-0.3,0-1.2,0.2-1.4,1.3l-0.6,3
			h-0.7l1-4.9h0.7l-0.1,0.5c0.3-0.4,0.8-0.6,1.4-0.6c0.7,0,1.3,0.5,1.3,1.4C226.8,15.8,226.8,16,226.8,16.2z"/>
		<path fill="#3B3A3E" d="M231.8,16l-0.7,3.3h-0.7l0.1-0.5c-0.4,0.4-0.8,0.5-1.4,0.5c-0.8,0-1.5-0.3-1.5-1.2c0-0.4,0.1-0.8,0.4-1.1
			c0.4-0.4,0.9-0.5,1.4-0.5h1.4l0.1-0.5c0-0.1,0-0.2,0-0.3c0-0.5-0.4-0.7-1-0.7s-1,0.2-1.3,0.6l-0.4-0.5c0.4-0.5,0.9-0.7,1.8-0.7
			c0.7,0,1.6,0.2,1.6,1.3C231.8,15.7,231.8,15.9,231.8,16z M229.6,17c-0.7,0-1.3,0.4-1.3,1.1c0,0.4,0.3,0.6,1,0.6
			c0.4,0,0.8-0.1,1-0.4c0.2-0.2,0.3-0.5,0.4-0.8l0.1-0.6H229.6z"/>
		<path fill="#3B3A3E" d="M235.3,14.9h-1l-0.6,3c0,0.1,0,0.2,0,0.3c0,0.3,0.1,0.4,0.5,0.4h0.4l-0.1,0.6h-0.5c-0.4,0-1-0.2-1-0.9
			c0-0.1,0-0.3,0-0.4l0.6-3h-0.6l0.1-0.5h0.6l0.3-1.5h0.7l-0.3,1.5h1L235.3,14.9z"/>
		<path fill="#3B3A3E" d="M236.5,19.3h-0.7l1-4.9h0.7L236.5,19.3z M237.8,13H237l0.1-0.7h0.8L237.8,13z"/>
		<path fill="#3B3A3E" d="M242.2,16.8c-0.2,1.1-0.5,1.6-0.9,2c-0.4,0.4-0.9,0.5-1.4,0.5c-0.8,0-1.6-0.4-1.6-1.6
			c0-0.3,0.1-0.7,0.1-0.9c0.2-1.1,0.5-1.6,0.9-2c0.4-0.4,0.9-0.5,1.4-0.5c0.8,0,1.6,0.4,1.6,1.6C242.3,16.2,242.3,16.6,242.2,16.8z
			 M240.7,14.9c-0.3,0-0.7,0.1-0.9,0.4c-0.3,0.3-0.5,0.7-0.7,1.5c-0.1,0.3-0.1,0.6-0.1,0.8c0,0.8,0.4,1,0.9,1c0.3,0,0.7-0.1,0.9-0.4
			c0.3-0.3,0.5-0.7,0.7-1.5c0.1-0.4,0.1-0.7,0.1-0.9C241.7,15.2,241.2,14.9,240.7,14.9z"/>
		<path fill="#3B3A3E" d="M247.5,16.2l-0.6,3.1h-0.7l0.6-3c0-0.2,0-0.3,0-0.5c0-0.6-0.4-0.9-0.9-0.9c-0.3,0-1.2,0.2-1.4,1.3l-0.6,3
			h-0.7l1-4.9h0.7l-0.1,0.5c0.3-0.4,0.8-0.6,1.4-0.6c0.7,0,1.3,0.5,1.3,1.4C247.5,15.8,247.5,16,247.5,16.2z"/>
		<path fill="#3B3A3E" d="M250.5,20h-0.7l4.4-8.5h0.7L250.5,20z"/>
		<path fill="#3B3A3E" d="M261.3,14.2c0-0.9-0.5-1.4-1.3-1.4c-0.5,0-1,0.2-1.3,0.6c-0.4,0.4-0.6,0.9-0.8,2.4
			c-0.2,0.9-0.2,1.4-0.2,1.7c0,0.8,0.6,1.3,1.3,1.3c1,0,1.6-0.7,1.9-1.4h0.7c-0.4,1.3-1.4,2.1-2.6,2.1c-1.1,0-2-0.7-2-1.9
			c0-0.3,0-0.7,0.2-1.7c0.3-1.6,0.5-2.2,1.1-2.8c0.4-0.5,1.1-0.8,1.9-0.8c1.3,0,2,0.9,2,2.1H261.3z"/>
		<path fill="#3B3A3E" d="M266.6,16.8c-0.2,1.1-0.5,1.6-0.9,2c-0.4,0.4-0.9,0.5-1.4,0.5c-0.8,0-1.6-0.4-1.6-1.6
			c0-0.3,0.1-0.7,0.1-0.9c0.2-1.1,0.5-1.6,0.9-2c0.4-0.4,0.9-0.5,1.4-0.5c0.8,0,1.6,0.4,1.6,1.6C266.7,16.2,266.6,16.6,266.6,16.8z
			 M265,14.9c-0.3,0-0.7,0.1-0.9,0.4c-0.3,0.3-0.5,0.7-0.7,1.5c-0.1,0.3-0.1,0.6-0.1,0.8c0,0.8,0.4,1,0.9,1c0.3,0,0.7-0.1,0.9-0.4
			c0.3-0.3,0.5-0.7,0.7-1.5c0.1-0.4,0.1-0.7,0.1-0.9C266,15.2,265.5,14.9,265,14.9z"/>
		<path fill="#3B3A3E" d="M268.5,17.9c0,0.1,0,0.2,0,0.3c0,0.2,0.1,0.4,0.5,0.4h0.4l-0.1,0.6h-0.5c-0.4,0-1-0.2-1-0.9
			c0-0.1,0-0.3,0-0.4l1.1-5.7h0.7L268.5,17.9z"/>
		<path fill="#3B3A3E" d="M270.9,17.9c0,0.1,0,0.2,0,0.3c0,0.2,0.1,0.4,0.5,0.4h0.4l-0.1,0.6h-0.5c-0.4,0-1-0.2-1-0.9
			c0-0.1,0-0.3,0-0.4l1.1-5.7h0.7L270.9,17.9z"/>
		<path fill="#3B3A3E" d="M276.4,16l-0.7,3.3h-0.7l0.1-0.5c-0.4,0.4-0.8,0.5-1.4,0.5c-0.8,0-1.5-0.3-1.5-1.2c0-0.4,0.1-0.8,0.4-1.1
			c0.4-0.4,0.9-0.5,1.4-0.5h1.4l0.1-0.5c0-0.1,0-0.2,0-0.3c0-0.5-0.4-0.7-1-0.7s-1,0.2-1.3,0.6l-0.4-0.5c0.4-0.5,0.9-0.7,1.8-0.7
			c0.7,0,1.6,0.2,1.6,1.3C276.5,15.7,276.4,15.9,276.4,16z M274.3,17c-0.7,0-1.3,0.4-1.3,1.1c0,0.4,0.3,0.6,1,0.6
			c0.4,0,0.8-0.1,1-0.4c0.2-0.2,0.3-0.5,0.4-0.8l0.1-0.6H274.3z"/>
		<path fill="#3B3A3E" d="M281.6,16.8c-0.2,0.9-0.4,1.5-0.8,2c-0.4,0.4-0.8,0.5-1.3,0.5c-0.5,0-1-0.2-1.2-0.7l-0.1,0.6h-0.7l1.4-7.1
			h0.7l-0.5,2.7c0.2-0.3,0.6-0.6,1.3-0.6c0.9,0,1.4,0.5,1.4,1.5C281.7,16.1,281.6,16.4,281.6,16.8z M280.1,14.9
			c-1,0-1.3,0.9-1.5,1.9c-0.1,0.3-0.1,0.6-0.1,0.9c0,0.6,0.2,1,0.9,1c1,0,1.3-0.9,1.5-1.9c0.1-0.3,0.1-0.6,0.1-0.9
			C281,15.4,280.8,14.9,280.1,14.9z"/>
		<path fill="#3B3A3E" d="M286.5,16.8c-0.2,1.1-0.5,1.6-0.9,2c-0.4,0.4-0.9,0.5-1.4,0.5c-0.8,0-1.6-0.4-1.6-1.6
			c0-0.3,0.1-0.7,0.1-0.9c0.2-1.1,0.5-1.6,0.9-2c0.4-0.4,0.9-0.5,1.4-0.5c0.8,0,1.6,0.4,1.6,1.6C286.6,16.2,286.6,16.6,286.5,16.8z
			 M285,14.9c-0.3,0-0.7,0.1-0.9,0.4c-0.3,0.3-0.5,0.7-0.7,1.5c-0.1,0.3-0.1,0.6-0.1,0.8c0,0.8,0.4,1,0.9,1c0.3,0,0.7-0.1,0.9-0.4
			c0.3-0.3,0.5-0.7,0.7-1.5c0.1-0.4,0.1-0.7,0.1-0.9C286,15.2,285.5,14.9,285,14.9z"/>
		<path fill="#3B3A3E" d="M290.9,15.3c-0.1-0.2-0.3-0.3-0.7-0.3c-0.7,0-1.3,0.6-1.4,1.3l-0.6,3h-0.7l1-4.9h0.7L289,15
			c0.3-0.4,0.8-0.7,1.4-0.7c0.5,0,0.8,0.2,1.1,0.5L290.9,15.3z"/>
		<path fill="#3B3A3E" d="M295.5,16l-0.7,3.3h-0.7l0.1-0.5c-0.4,0.4-0.8,0.5-1.4,0.5c-0.8,0-1.5-0.3-1.5-1.2c0-0.4,0.1-0.8,0.4-1.1
			c0.4-0.4,0.9-0.5,1.4-0.5h1.4l0.1-0.5c0-0.1,0-0.2,0-0.3c0-0.5-0.4-0.7-1-0.7s-1,0.2-1.3,0.6l-0.4-0.5c0.4-0.5,0.9-0.7,1.8-0.7
			c0.7,0,1.6,0.2,1.6,1.3C295.6,15.7,295.5,15.9,295.5,16z M293.4,17c-0.7,0-1.3,0.4-1.3,1.1c0,0.4,0.3,0.6,1,0.6
			c0.4,0,0.8-0.1,1-0.4c0.2-0.2,0.3-0.5,0.4-0.8l0.1-0.6H293.4z"/>
		<path fill="#3B3A3E" d="M299.1,14.9h-1l-0.6,3c0,0.1,0,0.2,0,0.3c0,0.3,0.1,0.4,0.5,0.4h0.4l-0.1,0.6h-0.5c-0.4,0-1-0.2-1-0.9
			c0-0.1,0-0.3,0-0.4l0.6-3h-0.6l0.1-0.5h0.6l0.3-1.5h0.7l-0.3,1.5h1L299.1,14.9z"/>
		<path fill="#3B3A3E" d="M300.3,19.3h-0.7l1-4.9h0.7L300.3,19.3z M301.6,13h-0.8l0.1-0.7h0.8L301.6,13z"/>
		<path fill="#3B3A3E" d="M306,16.8c-0.2,1.1-0.5,1.6-0.9,2c-0.4,0.4-0.9,0.5-1.4,0.5c-0.8,0-1.6-0.4-1.6-1.6c0-0.3,0.1-0.7,0.1-0.9
			c0.2-1.1,0.5-1.6,0.9-2c0.4-0.4,0.9-0.5,1.4-0.5c0.8,0,1.6,0.4,1.6,1.6C306.1,16.2,306,16.6,306,16.8z M304.5,14.9
			c-0.3,0-0.7,0.1-0.9,0.4c-0.3,0.3-0.5,0.7-0.7,1.5c-0.1,0.3-0.1,0.6-0.1,0.8c0,0.8,0.4,1,0.9,1c0.3,0,0.7-0.1,0.9-0.4
			c0.3-0.3,0.5-0.7,0.7-1.5c0.1-0.4,0.1-0.7,0.1-0.9C305.4,15.2,305,14.9,304.5,14.9z"/>
		<path fill="#3B3A3E" d="M311.2,16.2l-0.6,3.1h-0.7l0.6-3c0-0.2,0-0.3,0-0.5c0-0.6-0.4-0.9-0.9-0.9c-0.3,0-1.2,0.2-1.4,1.3l-0.6,3
			H307l1-4.9h0.7l-0.1,0.5c0.3-0.4,0.8-0.6,1.4-0.6c0.7,0,1.3,0.5,1.3,1.4C311.3,15.8,311.3,16,311.2,16.2z"/>
		<path fill="#3B3A3E" d="M314.3,20h-0.7l4.4-8.5h0.7L314.3,20z"/>
		<path fill="#3B3A3E" d="M325.1,14.2c0-0.9-0.5-1.4-1.3-1.4c-0.5,0-1,0.2-1.3,0.6c-0.4,0.4-0.6,0.9-0.8,2.4
			c-0.2,0.9-0.2,1.4-0.2,1.7c0,0.8,0.6,1.3,1.3,1.3c1,0,1.6-0.7,1.9-1.4h0.7c-0.4,1.3-1.4,2.1-2.6,2.1c-1.1,0-2-0.7-2-1.9
			c0-0.3,0-0.7,0.2-1.7c0.3-1.6,0.5-2.2,1.1-2.8c0.4-0.5,1.1-0.8,1.9-0.8c1.3,0,2,0.9,2,2.1H325.1z"/>
		<path fill="#3B3A3E" d="M330.3,16.8c-0.2,1.1-0.5,1.6-0.9,2c-0.4,0.4-0.9,0.5-1.4,0.5c-0.8,0-1.6-0.4-1.6-1.6
			c0-0.3,0.1-0.7,0.1-0.9c0.2-1.1,0.5-1.6,0.9-2c0.4-0.4,0.9-0.5,1.4-0.5c0.8,0,1.6,0.4,1.6,1.6C330.4,16.2,330.4,16.6,330.3,16.8z
			 M328.8,14.9c-0.3,0-0.7,0.1-0.9,0.4c-0.3,0.3-0.5,0.7-0.7,1.5c-0.1,0.3-0.1,0.6-0.1,0.8c0,0.8,0.4,1,0.9,1c0.3,0,0.7-0.1,0.9-0.4
			c0.3-0.3,0.5-0.7,0.7-1.5c0.1-0.4,0.1-0.7,0.1-0.9C329.7,15.2,329.3,14.9,328.8,14.9z"/>
		<path fill="#3B3A3E" d="M332.2,17.9c0,0.1,0,0.2,0,0.3c0,0.2,0.1,0.4,0.5,0.4h0.4l-0.1,0.6h-0.5c-0.4,0-1-0.2-1-0.9
			c0-0.1,0-0.3,0-0.4l1.1-5.7h0.7L332.2,17.9z"/>
		<path fill="#3B3A3E" d="M337.7,16.8c-0.2,1.1-0.5,1.6-0.9,2c-0.4,0.4-0.9,0.5-1.4,0.5c-0.8,0-1.6-0.4-1.6-1.6
			c0-0.3,0.1-0.7,0.1-0.9c0.2-1.1,0.5-1.6,0.9-2c0.4-0.4,0.9-0.5,1.4-0.5c0.8,0,1.6,0.4,1.6,1.6C337.8,16.2,337.7,16.6,337.7,16.8z
			 M336.2,14.9c-0.3,0-0.7,0.1-0.9,0.4c-0.3,0.3-0.5,0.7-0.7,1.5c-0.1,0.3-0.1,0.6-0.1,0.8c0,0.8,0.4,1,0.9,1c0.3,0,0.7-0.1,0.9-0.4
			c0.3-0.3,0.5-0.7,0.7-1.5c0.1-0.4,0.1-0.7,0.1-0.9C337.1,15.2,336.7,14.9,336.2,14.9z"/>
		<path fill="#3B3A3E" d="M342.2,15.5c-0.3-0.4-0.5-0.5-1-0.5c-0.4,0-0.8,0.1-1.1,0.5c-0.4,0.4-0.5,0.9-0.6,1.4
			c0,0.3-0.1,0.5-0.1,0.7c0,0.8,0.5,1.2,1.1,1.2c0.5,0,0.8-0.2,1.2-0.6l0.4,0.5c-0.5,0.5-1,0.7-1.6,0.7c-1.1,0-1.7-0.8-1.7-1.8
			c0-0.2,0-0.5,0.1-0.8c0.3-1.6,1.2-2.5,2.5-2.5c0.7,0,1.1,0.3,1.4,0.7L342.2,15.5z"/>
		<path fill="#3B3A3E" d="M347.2,16l-0.7,3.3h-0.7l0.1-0.5c-0.4,0.4-0.8,0.5-1.4,0.5c-0.8,0-1.5-0.3-1.5-1.2c0-0.4,0.1-0.8,0.4-1.1
			c0.4-0.4,0.9-0.5,1.4-0.5h1.4l0.1-0.5c0-0.1,0-0.2,0-0.3c0-0.5-0.4-0.7-1-0.7s-1,0.2-1.3,0.6l-0.4-0.5c0.4-0.5,0.9-0.7,1.8-0.7
			c0.7,0,1.6,0.2,1.6,1.3C347.2,15.7,347.2,15.9,347.2,16z M345,17c-0.7,0-1.3,0.4-1.3,1.1c0,0.4,0.3,0.6,1,0.6c0.4,0,0.8-0.1,1-0.4
			c0.2-0.2,0.3-0.5,0.4-0.8l0.1-0.6H345z"/>
		<path fill="#3B3A3E" d="M350.8,14.9h-1l-0.6,3c0,0.1,0,0.2,0,0.3c0,0.3,0.1,0.4,0.5,0.4h0.4l-0.1,0.6h-0.5c-0.4,0-1-0.2-1-0.9
			c0-0.1,0-0.3,0-0.4l0.6-3h-0.6l0.1-0.5h0.6l0.3-1.5h0.7l-0.3,1.5h1L350.8,14.9z"/>
		<path fill="#3B3A3E" d="M352,19.3h-0.7l1-4.9h0.7L352,19.3z M353.2,13h-0.8l0.1-0.7h0.8L353.2,13z"/>
		<path fill="#3B3A3E" d="M357.7,16.8c-0.2,1.1-0.5,1.6-0.9,2c-0.4,0.4-0.9,0.5-1.4,0.5c-0.8,0-1.6-0.4-1.6-1.6
			c0-0.3,0.1-0.7,0.1-0.9c0.2-1.1,0.5-1.6,0.9-2c0.4-0.4,0.9-0.5,1.4-0.5c0.8,0,1.6,0.4,1.6,1.6C357.8,16.2,357.7,16.6,357.7,16.8z
			 M356.1,14.9c-0.3,0-0.7,0.1-0.9,0.4c-0.3,0.3-0.5,0.7-0.7,1.5c-0.1,0.3-0.1,0.6-0.1,0.8c0,0.8,0.4,1,0.9,1c0.3,0,0.7-0.1,0.9-0.4
			c0.3-0.3,0.5-0.7,0.7-1.5c0.1-0.4,0.1-0.7,0.1-0.9C357.1,15.2,356.6,14.9,356.1,14.9z"/>
		<path fill="#3B3A3E" d="M362.9,16.2l-0.6,3.1h-0.7l0.6-3c0-0.2,0-0.3,0-0.5c0-0.6-0.4-0.9-0.9-0.9c-0.3,0-1.2,0.2-1.4,1.3l-0.6,3
			h-0.7l1-4.9h0.7l-0.1,0.5c0.3-0.4,0.8-0.6,1.4-0.6c0.7,0,1.3,0.5,1.3,1.4C362.9,15.8,362.9,16,362.9,16.2z"/>
	</g>
</g>
</svg>
